<svg width="110" height="28" viewBox="0 0 110 28" fill="none" xmlns="http://www.w3.org/2000/svg">
<path d="M13.04 27.432C5.372 27.432 0.404 22.104 0.404 13.86C0.404 5.688 5.552 0.251999 13.256 0.251999C19.484 0.251999 24.128 3.888 25.028 9.54H20.168C19.268 6.48 16.64 4.68 13.148 4.68C8.288 4.68 5.228 8.208 5.228 13.824C5.228 19.404 8.324 23.004 13.148 23.004C16.712 23.004 19.448 21.132 20.312 18.216H25.1C24.092 23.76 19.268 27.432 13.04 27.432ZM33.5248 27.468C29.7448 27.468 27.4408 25.272 27.4408 21.924C27.4408 18.648 29.8168 16.596 34.0288 16.272L39.3568 15.876V15.48C39.3568 13.068 37.9168 12.096 35.6848 12.096C33.0928 12.096 31.6528 13.176 31.6528 15.048H27.9088C27.9088 11.196 31.0768 8.676 35.9008 8.676C40.6888 8.676 43.6408 11.268 43.6408 16.2V27H39.7888L39.4648 24.372C38.7088 26.208 36.2968 27.468 33.5248 27.468ZM34.9648 24.156C37.6648 24.156 39.3928 22.536 39.3928 19.8V18.864L35.6848 19.152C32.9488 19.404 31.9048 20.304 31.9048 21.744C31.9048 23.364 32.9848 24.156 34.9648 24.156ZM46.5875 21.6H50.7635C50.7995 23.148 51.9515 24.12 53.9675 24.12C56.0195 24.12 57.1355 23.292 57.1355 21.996C57.1355 21.096 56.6675 20.448 55.0835 20.088L51.8795 19.332C48.6755 18.612 47.1275 17.1 47.1275 14.256C47.1275 10.764 50.0795 8.676 54.1835 8.676C58.1795 8.676 60.8795 10.98 60.9155 14.436H56.7395C56.7035 12.924 55.6955 11.952 54.0035 11.952C52.2755 11.952 51.2675 12.744 51.2675 14.076C51.2675 15.084 52.0595 15.732 53.5715 16.092L56.7755 16.848C59.7635 17.532 61.2755 18.9 61.2755 21.636C61.2755 25.236 58.2155 27.468 53.8235 27.468C49.3955 27.468 46.5875 25.092 46.5875 21.6ZM76.6796 9.216H81.0716V27H77.0036L76.6796 24.624C75.5996 26.316 73.2956 27.468 70.9196 27.468C66.8156 27.468 64.4036 24.696 64.4036 20.34V9.216H68.7956V18.792C68.7956 22.176 70.1276 23.544 72.5756 23.544C75.3476 23.544 76.6796 21.924 76.6796 18.54V9.216ZM90.8998 27.468C87.1198 27.468 84.8158 25.272 84.8158 21.924C84.8158 18.648 87.1918 16.596 91.4038 16.272L96.7318 15.876V15.48C96.7318 13.068 95.2918 12.096 93.0598 12.096C90.4678 12.096 89.0278 13.176 89.0278 15.048H85.2838C85.2838 11.196 88.4518 8.676 93.2758 8.676C98.0638 8.676 101.016 11.268 101.016 16.2V27H97.1638L96.8398 24.372C96.0838 26.208 93.6718 27.468 90.8998 27.468ZM92.3398 24.156C95.0398 24.156 96.7678 22.536 96.7678 19.8V18.864L93.0598 19.152C90.3238 19.404 89.2798 20.304 89.2798 21.744C89.2798 23.364 90.3598 24.156 92.3398 24.156ZM109.759 27H105.403V0.215999H109.759V27Z" fill="black"/>
</svg>
